<svg width="181" height="86" viewBox="0 0 181 86" fill="none" xmlns="http://www.w3.org/2000/svg">
<path d="M160.781 68.8965H158.285L158.946 26.4635H160.119L160.781 68.8965Z" fill="white"/>
<path d="M160.021 26.5461C160.021 26.5461 161.683 27.8951 162.561 28.159C163.439 28.4228 164.063 28.519 166.101 29.973C168.139 31.4262 172.914 34.7788 173.633 35.8071C173.633 35.8071 172.384 35.5557 171.188 34.7525C169.993 33.9501 159.697 27.2115 159.697 27.2115L160.021 26.5461Z" fill="white"/>
<path d="M159.585 27.3206C159.585 27.3206 157.502 27.9693 156.811 28.5429C156.118 29.1164 155.709 29.5705 153.338 30.4691C150.966 31.367 145.458 33.4995 144.151 33.5513C144.151 33.5513 145.024 32.6716 146.37 32.1192C147.716 31.566 159.147 26.7172 159.147 26.7172L159.585 27.3206Z" fill="white"/>
<path d="M159.469 26.1787C159.469 26.1787 159.911 24.1541 159.729 23.3028C159.547 22.4516 159.333 21.8911 159.69 19.5064C160.047 17.1217 160.834 11.5602 161.437 10.4669C161.437 10.4669 161.812 11.6185 161.648 12.9937C161.485 14.3683 160.243 26.1211 160.243 26.1211L159.469 26.1787Z" fill="white"/>
<path d="M159.099 27.6066C158.475 27.3369 158.2 26.6417 158.485 26.0535C158.772 25.4654 159.51 25.2066 160.134 25.4756C160.759 25.7452 161.033 26.4405 160.747 27.0287C160.461 27.6175 159.723 27.8763 159.099 27.6066Z" fill="white"/>
<path d="M159.287 27.2199C158.889 27.0486 158.714 26.6055 158.896 26.2309C159.079 25.8563 159.548 25.6915 159.946 25.8628C160.343 26.0348 160.518 26.4772 160.336 26.8518C160.154 27.2264 159.684 27.3911 159.287 27.2199Z" fill="#ECECED"/>
<path opacity="0.01" d="M160.781 68.8965H159.532V26.4635H160.119L160.781 68.8965Z" fill="#0C0D0C"/>
<path d="M19.4762 63.1001H16.9878L17.6476 20.8085H18.8164L19.4762 63.1001Z" fill="white"/>
<path d="M18.3462 20.2265C18.3462 20.2265 20.5151 19.9663 21.3079 19.529C22.1008 19.0924 22.5927 18.7215 25.095 18.2689C27.5965 17.8155 33.4164 16.7187 34.705 16.9023C34.705 16.9023 33.6732 17.6071 32.2453 17.9059C30.8166 18.2047 18.6533 20.8955 18.6533 20.8955L18.3462 20.2265Z" fill="white"/>
<path d="M18.6638 21.0475C18.6638 21.0475 17.7843 22.9337 17.7743 23.7988C17.7634 24.6646 17.8477 25.2528 16.9721 27.507C16.0965 29.7612 14.0993 35.0269 13.2694 35.9736C13.2694 35.9736 13.1588 34.7777 13.6221 33.4702C14.0854 32.1627 17.8965 20.9513 17.8965 20.9513L18.6638 21.0475Z" fill="white"/>
<path d="M17.689 20.3667C17.689 20.3667 16.3926 18.7079 15.6021 18.267C14.8116 17.8268 14.2283 17.6023 12.5916 15.7628C10.9549 13.9233 7.10822 9.6648 6.65186 8.51473C6.65186 8.51473 7.8067 9.02126 8.77822 10.0518C9.74974 11.0831 18.1601 19.788 18.1601 19.788L17.689 20.3667Z" fill="white"/>
<path d="M18.5652 21.5773C17.9371 21.8339 17.2077 21.5613 16.9354 20.9695C16.6632 20.3777 16.9525 19.6904 17.5805 19.4339C18.2086 19.1773 18.938 19.4499 19.2103 20.0417C19.4826 20.6335 19.1933 21.3208 18.5652 21.5773Z" fill="white"/>
<path d="M18.3861 21.1881C17.9862 21.3513 17.5213 21.1779 17.348 20.8011C17.1756 20.4243 17.3589 19.9863 17.7595 19.823C18.1595 19.6605 18.6236 19.8332 18.7968 20.21C18.9701 20.5876 18.786 21.0248 18.3861 21.1881Z" fill="#ECECED"/>
<path opacity="0.01" d="M19.4757 63.1001H18.2319V20.8085H18.8159L19.4757 63.1001Z" fill="#0C0D0C"/>
<path d="M108.65 34.4043V77.2637L129.134 75.5276V41.9454L108.65 34.4043Z" fill="#B0B1B3"/>
<path d="M155.287 51.5739L150.806 49.9245V73.6904L155.287 73.3107V51.5739Z" fill="#B0B1B3"/>
<path d="M141.206 46.3902V74.5049L150.806 73.6908V49.9242L141.206 46.3902Z" fill="#B0B1B3"/>
<path d="M129.134 41.9456V75.5278L141.206 74.5046V46.3899L129.134 41.9456Z" fill="#B0B1B3"/>
<path d="M13.7896 60.0461V74.5882L23.0646 75.728L23.0886 58.082L13.7896 60.0461Z" fill="#ECECED"/>
<path d="M65.3877 18.4772L13.7896 45.9644V56.2246L23.0948 53.442L23.0971 51.8984L39.589 46.4855V48.5101L62.7508 41.5835L62.7516 49.7039L39.589 54.5964V77.7596L65.3877 80.9307V18.4772Z" fill="#ECECED"/>
<path d="M62.751 49.7042V41.5837L39.5884 48.5104V54.5967L62.751 49.7042Z" fill="#595B61"/>
<path d="M23.0948 53.4421L13.7896 56.2247V60.0459L23.0886 58.0817L23.0948 53.4421Z" fill="#595B61"/>
<path d="M65.3877 18.4772V80.9307L108.651 77.264V34.4047L65.3877 18.4772Z" fill="#D8D9DA"/>
<path d="M112.8 39.5159V42.7883L154.47 55.1533V53.273L112.8 39.5159Z" fill="#595B61"/>
<path d="M72.4712 80.3307L68.688 80.6514V68.4168L72.5594 68.4401L72.4712 80.3307Z" fill="#595B61"/>
<path d="M68.688 41.5835V49.704L98.0649 53.9653V47.6166L68.688 41.5835Z" fill="#595B61"/>
<path d="M111.174 68.6755V77.0503L113.64 76.8411L113.696 68.6908L111.174 68.6755Z" fill="#595B61"/>
<path d="M129.134 68.7852L127.188 68.7735V75.6929L129.134 75.5274V68.7852Z" fill="#595B61"/>
<path d="M100.458 68.6105V77.959L103.832 77.6726V68.6309L100.458 68.6105Z" fill="#595B61"/>
<path d="M60.1923 66.5458L55.3911 66.6894V79.7017L60.1923 80.292V66.5458Z" fill="#595B61"/>
<path d="M46.5601 66.9538V78.6162L51.4223 79.2139V66.808L46.5601 66.9538Z" fill="#595B61"/>
<path d="M40.3091 67.1414V77.8484L43.8811 78.2871V67.0342L40.3091 67.1414Z" fill="#595B61"/>
<path d="M19.5708 67.762V75.2987L21.3568 75.5181V67.7088L19.5708 67.762Z" fill="#595B61"/>
<path d="M18.8064 75.2046V67.7853L17.1704 67.8341V75.0034L18.8064 75.2046Z" fill="#595B61"/>
<path d="M14.9067 67.9017V74.7249L16.511 74.9224V67.8536L14.9067 67.9017Z" fill="#595B61"/>
<path d="M73.9517 66.5458V75.2056L90.4358 74.4454V66.8891L73.9517 66.5458Z" fill="#595B61"/>
<path d="M165.914 62.2727L149.393 59.1978V76.3774L165.914 74.191V62.2727Z" fill="#595B61"/>
<path d="M129.134 75.5276V56.7439L149.392 59.1978V76.3774L129.134 75.5276Z" fill="#85878B"/>
<path d="M39.5888 77.8882V54.5968V48.5097V46.4851L23.0969 51.898L23.0954 53.4423L23.0892 58.0819L23.0698 75.7287" fill="#85878B"/>
</svg>
